<?xml version="1.0" encoding="UTF-8" standalone="no"?>
<!-- Created with Inkscape (http://www.inkscape.org/) -->

<svg
   xmlns:dc="http://purl.org/dc/elements/1.1/"
   xmlns:cc="http://creativecommons.org/ns#"
   xmlns:rdf="http://www.w3.org/1999/02/22-rdf-syntax-ns#"
   xmlns:svg="http://www.w3.org/2000/svg"
   xmlns="http://www.w3.org/2000/svg"
   xmlns:sodipodi="http://sodipodi.sourceforge.net/DTD/sodipodi-0.dtd"
   xmlns:inkscape="http://www.inkscape.org/namespaces/inkscape"
   width="210mm"
   height="297mm"
   id="svg2"
   version="1.1"
   inkscape:version="0.48.1 "
   sodipodi:docname="Documento nuevo 1">
  <defs
     id="defs4" />
  <sodipodi:namedview
     id="base"
     pagecolor="#ffffff"
     bordercolor="#666666"
     borderopacity="1.0"
     inkscape:pageopacity="0.0"
     inkscape:pageshadow="2"
     inkscape:zoom="0.35"
     inkscape:cx="350"
     inkscape:cy="520"
     inkscape:document-units="px"
     inkscape:current-layer="layer1"
     showgrid="false"
     inkscape:window-width="1366"
     inkscape:window-height="706"
     inkscape:window-x="-8"
     inkscape:window-y="-8"
     inkscape:window-maximized="1" />
  <metadata
     id="metadata7">
    <rdf:RDF>
      <cc:Work
         rdf:about="">
        <dc:format>image/svg+xml</dc:format>
        <dc:type
           rdf:resource="http://purl.org/dc/dcmitype/StillImage" />
        <dc:title></dc:title>
      </cc:Work>
    </rdf:RDF>
  </metadata>
  <g
     inkscape:label="Capa 1"
     inkscape:groupmode="layer"
     id="layer1">
    <path
       sodipodi:type="star"
       style="fill:#f9f9f9;fill-opacity:1;stroke:none"
       id="path2989"
       sodipodi:sides="32"
       sodipodi:cx="217.14286"
       sodipodi:cy="463.79075"
       sodipodi:r1="158.41047"
       sodipodi:r2="66.841423"
       sodipodi:arg1="0.68319145"
       sodipodi:arg2="0.78136622"
       inkscape:flatsided="false"
       inkscape:rounded="-0.029"
       inkscape:randomized="0"
       d="m 340,563.79074 c 1.6865,-2.07199 -77.28442,-51.03022 -75.40294,-52.92693 1.88147,-1.8967 51.47492,76.67686 53.53324,74.9737 2.05833,-1.70316 -65.84392,-65.12713 -63.62856,-66.62033 2.21535,-1.49321 35.52693,85.24579 37.87797,83.97691 2.35105,-1.26887 -51.87307,-76.72124 -49.40897,-77.75356 2.46409,-1.03232 18.21366,90.53878 20.76707,89.75295 2.55342,-0.78583 -35.90877,-85.367 -33.29063,-85.89876 2.61815,-0.53177 0.20045,92.3524 2.85811,92.07982 2.65766,-0.27258 -18.56452,-90.73215 -15.89294,-90.74292 2.67158,-0.0108 -17.82046,90.61699 -15.16069,90.86813 2.65977,0.25114 -0.50684,-92.61052 2.11551,-92.09988 2.62234,0.51063 -35.15655,85.39921 -32.59688,86.16442 2.55967,0.76521 17.57031,-90.92991 20.04265,-89.9175 2.47234,1.01242 -51.14158,76.89959 -48.78038,78.14946 2.3612,1.24988 34.97225,-85.75492 37.19957,-84.27962 2.22732,1.47529 -65.16127,65.44475 -63.08928,67.13126 2.07199,1.6865 51.03022,-77.28442 52.92693,-75.40294 1.89671,1.88147 -76.676858,51.47491 -74.973699,53.53324 1.703159,2.05832 65.127129,-65.84392 66.620339,-63.62856 1.4932,2.21535 -85.245792,35.52692 -83.976918,37.87797 1.268873,2.35104 76.721238,-51.87307 77.753568,-49.40898 1.03232,2.4641 -90.538781,18.21366 -89.752955,20.76708 0.785827,2.55341 85.366995,-35.90877 85.898765,-33.29063 0.53176,2.61815 -92.35241,0.20045 -92.079829,2.85811 0.27258,2.65766 90.732149,-18.56452 90.742919,-15.89294 0.0108,2.67158 -90.616986,-17.82046 -90.868126,-15.16069 -0.251141,2.65977 92.610516,-0.50684 92.099876,2.1155 -0.51063,2.62235 -85.399204,-35.15654 -86.164415,-32.59687 -0.76521,2.55967 90.929915,17.57031 89.917495,20.04265 -1.01242,2.47234 -76.899587,-51.14158 -78.149461,-48.78038 -1.249874,2.3612 85.754921,34.97225 84.279631,37.19957 -1.4753,2.22732 -65.444758,-65.16128 -67.131263,-63.08928 -1.686506,2.07199 77.284413,51.03022 75.402943,52.92693 -1.88148,1.89671 -51.47492,-76.67686 -53.53324,-74.9737 -2.05833,1.70316 65.84391,65.12713 63.62856,66.62034 -2.21535,1.4932 -35.52693,-85.24579 -37.87798,-83.97692 -2.35104,1.26887 51.87308,76.72124 49.40898,77.75356 -2.4641,1.03232 -18.21366,-90.53877 -20.76708,-89.75295 -2.55341,0.78583 35.90878,85.367 33.29063,85.89877 -2.61814,0.53176 -0.20045,-92.35241 -2.85811,-92.07983 -2.65766,0.27258 18.56452,90.73215 15.89294,90.74292 -2.67158,0.0108 17.82046,-90.61699 15.16069,-90.86813 -2.65977,-0.25114 0.50685,92.61052 -2.1155,92.09988 -2.62235,-0.51063 35.15654,-85.39921 32.59688,-86.16442 -2.55967,-0.76521 -17.57032,90.92991 -20.04266,89.9175 -2.47234,-1.01242 51.14158,-76.89959 48.78038,-78.14946 -2.3612,-1.24988 -34.97224,85.75492 -37.19957,84.27962 -2.22732,-1.47529 65.16128,-65.44475 63.08929,-67.13126 -2.072,-1.6865 -51.03022,77.28442 -52.92693,75.40295 -1.89671,-1.88148 76.67685,-51.47492 74.97369,-53.53325 -1.70315,-2.05832 -65.12713,65.84392 -66.62033,63.62857 -1.49321,-2.21536 85.24579,-35.52693 83.97691,-37.87798 -1.26887,-2.35104 -76.72124,51.87307 -77.75356,49.40898 -1.03232,-2.4641 90.53878,-18.21366 89.75295,-20.76708 -0.78583,-2.55341 -85.367,35.90877 -85.89876,33.29063 -0.53177,-2.61814 92.35241,-0.20045 92.07982,-2.85811 -0.27258,-2.65766 -90.73215,18.56452 -90.74292,15.89294 -0.0108,-2.67158 90.61699,17.82046 90.86813,15.16069 0.25114,-2.65977 -92.61051,0.50685 -92.09988,-2.1155 0.51064,-2.62235 85.39921,35.15654 86.16442,32.59687 0.76521,-2.55967 -90.92991,-17.57031 -89.91749,-20.04265 1.01241,-2.47234 76.89958,51.14158 78.14946,48.78038 1.24987,-2.3612 -85.75492,-34.97225 -84.27963,-37.19957 1.47529,-2.22732 65.44475,65.16128 67.13126,63.08928 z" />
    <path
       style="color:#000000;fill:#000000;fill-opacity:1;fill-rule:nonzero;stroke:none;stroke-width:2.24141216;marker:none;visibility:visible;display:inline;overflow:visible;enable-background:accumulate"
       d="M 371.4375 160.9375 C 194.71194 160.9375 51.4375 304.21196 51.4375 480.9375 C 51.4375 657.66304 194.71194 800.9375 371.4375 800.9375 C 438.35331 800.9375 500.45214 780.36889 551.8125 745.25 C 522.38375 755.548 490.7562 761.1875 457.8125 761.1875 C 300.6719 761.1875 173.28125 633.79684 173.28125 476.65625 C 173.28125 319.51565 300.6719 192.125 457.8125 192.125 C 480.94118 192.125 503.40923 194.88578 524.9375 200.09375 C 479.36872 175.13466 427.05854 160.9375 371.4375 160.9375 z "
       id="path2995" />
    <path
       sodipodi:type="star"
       style="fill:#000000;fill-opacity:1;stroke:none"
       id="path3788"
       sodipodi:sides="5"
       sodipodi:cx="-720"
       sodipodi:cy="606.64789"
       sodipodi:r1="101.73997"
       sodipodi:r2="44.345467"
       sodipodi:arg1="0.90482707"
       sodipodi:arg2="1.4826689"
       inkscape:flatsided="false"
       inkscape:rounded="-0.029"
       inkscape:randomized="0"
       d="m -657.14285,686.64789 c 1.50868,-1.3139 -60.95335,-35.75137 -58.95415,-35.82663 2.10861,-0.0794 -62.3733,39.24355 -60.5636,40.32869 1.7158,1.02882 15.16595,-69.01786 15.85532,-67.13977 0.72709,1.98088 -56.59725,-47.19361 -57.07004,-45.13715 -0.44826,1.94974 70.32642,-6.90401 68.75327,-5.66803 -1.65924,1.30363 27.39428,-68.4108 25.29237,-68.22498 -1.99283,0.17619 28.29817,64.75094 26.63655,63.63673 -1.75256,-1.17519 73.52783,4.91341 72.70158,2.9718 -0.78338,-1.84086 -52.83719,46.9223 -52.29098,44.99769 0.5761,-2.02994 18.04842,71.44746 19.63968,70.06165 z"
       inkscape:transform-center-x="3.8803473"
       inkscape:transform-center-y="6.7255054"
       transform="translate(1231.4286,-197.14286)" />
  </g>
</svg>
